<?xml version="1.0" ?><!DOCTYPE svg  PUBLIC '-//W3C//DTD SVG 1.1//EN'  'http://www.w3.org/Graphics/SVG/1.1/DTD/svg11.dtd'><svg height="100%" style="fill-rule:evenodd;clip-rule:evenodd;stroke-linejoin:round;stroke-miterlimit:2;" version="1.1" viewBox="0 0 171 187" width="100%" xml:space="preserve" xmlns="http://www.w3.org/2000/svg" xmlns:serif="http://www.serif.com/" xmlns:xlink="http://www.w3.org/1999/xlink"><g transform="matrix(1,0,0,1,-170.81,-162.93)"><path d="M256,349.07C219.64,349.07 199.52,346.07 186.43,338.66C176.81,333.22 170.81,325.01 170.81,317.29L170.81,214.67C170.81,203.15 179.25,189.98 192.74,180.36C203.94,172.36 224.06,162.93 256,162.93C311.61,162.93 341.19,192.98 341.19,214.67L341.19,317.21C341.19,325.02 335.19,333.21 325.49,338.66C312.48,346.07 292.36,349.07 256,349.07Z" style="fill:rgb(245,235,220);fill-rule:nonzero;"/></g><g transform="matrix(1,0,0,1,-170.81,-162.93)"><path d="M315.92,327C304.17,333.63 284.02,335.53 256.14,335.53C228.26,335.53 208.14,333.63 196.36,327C189.31,323 185.74,317.62 185.74,313.73C185.74,311.52 186.92,310.26 189.53,310.26L322.75,310.26C325.37,310.26 326.54,311.52 326.54,313.73C326.54,317.59 323,323 315.92,327ZM322.74,224.13L189.54,224.13C186.92,224.13 185.75,222.78 185.75,220.34C185.75,205.9 207.48,180.41 256.15,180.41C304.36,180.41 326.55,205.9 326.55,220.34C326.54,222.75 325.37,224.1 322.75,224.1L322.74,224.13Z" style="fill:rgb(255,135,50);fill-rule:nonzero;"/></g><g transform="matrix(1,0,0,1,-170.81,-162.93)"><path d="M214.12,283.66C213.855,283.305 213.699,282.882 213.67,282.44C213.67,281.94 213.94,281.58 214.48,281.09C216.756,279.064 218.802,276.794 220.58,274.32C221.7,272.73 222.342,270.853 222.43,268.91C222.43,264.99 218.86,261.91 214.97,261.91C212.275,262.01 209.827,263.535 208.55,265.91C206.43,269.34 203.89,273.31 202.27,274.91C201.86,275.32 201.64,275.41 201.32,275.41C200.78,275.41 200.55,275.05 200.55,274.46L200.55,269.9C200.55,265.48 197.93,261.9 193.18,261.9C188.43,261.9 185.81,265.46 185.81,269.9L185.81,297.69C185.81,302.11 188.39,305.69 193.18,305.69C197.97,305.69 200.55,302.13 200.55,297.69L200.55,291.28C200.55,290.74 200.78,290.33 201.32,290.33C202.04,290.33 202.22,291.05 202.4,291.41C204.189,295.327 206.5,298.983 209.27,302.28C210.937,304.302 213.382,305.53 216,305.66C220.155,305.584 223.572,302.233 223.73,298.08C223.73,295.64 222.73,293.84 220.73,291.67C218.363,289.14 216.155,286.465 214.12,283.66Z" style="fill:rgb(214,35,0);fill-rule:nonzero;"/></g><g transform="matrix(1,0,0,1,-170.81,-162.93)"><path d="M270.47,259.34C277.56,259.34 282.04,254.83 282.04,248.24C282.04,244.04 279.51,241.16 274.45,241.16L273,241.16C270.33,241.16 268.25,242.42 268.25,245.27C268.277,247.336 269.984,249.021 272.05,249.021C272.08,249.021 272.11,249.021 272.14,249.02C273,249.02 273.54,249.29 273.54,249.92C273.54,250.73 272.59,251.27 271.54,251.27C268.15,251.27 265.85,248.88 265.85,244.41C265.85,239.41 269.01,237.64 271.45,237.64C274.45,237.64 274.93,239.17 277.01,239.17C277.01,239.17 277.01,239.17 277.01,239.17C279.205,239.17 281.01,237.364 281.01,235.17C281.01,235.15 281.01,235.13 281.01,235.11C281.032,233.73 280.392,232.42 279.29,231.59C276.789,229.861 273.787,229.003 270.75,229.15C263.75,229.15 256.92,233.75 256.92,244.4C256.91,254.6 263.74,259.34 270.47,259.34Z" style="fill:rgb(214,35,0);fill-rule:nonzero;"/></g><g transform="matrix(1,0,0,1,-170.81,-162.93)"><path d="M191,259.07L197.37,259.07C203.37,259.07 207.04,255.07 207.04,250.07C207.121,247.618 206.028,245.268 204.1,243.75C203.87,243.57 203.65,243.39 203.65,243.21C203.65,243.03 203.79,242.9 204.01,242.62C205.161,241.263 205.773,239.529 205.73,237.75C205.73,232.34 202.07,229.45 196.38,229.45L191,229.45C187.43,229.45 185.71,231.53 185.71,234.32L185.71,254.22C185.74,257 187.46,259.07 191,259.07ZM193.67,237.19C193.67,237.187 193.67,237.184 193.67,237.182C193.67,236.633 194.121,236.182 194.67,236.182C194.713,236.182 194.757,236.184 194.8,236.19L195.39,236.19C195.46,236.184 195.53,236.181 195.599,236.181C196.878,236.181 197.929,237.232 197.929,238.511C197.929,238.58 197.926,238.65 197.92,238.72C197.925,238.781 197.927,238.841 197.927,238.902C197.927,240.24 196.825,241.342 195.487,241.342C195.455,241.342 195.422,241.341 195.39,241.34L194.8,241.34C194.757,241.346 194.713,241.348 194.67,241.348C194.121,241.348 193.67,240.897 193.67,240.348C193.67,240.346 193.67,240.343 193.67,240.34L193.67,237.19ZM193.67,247.75C193.67,247.747 193.67,247.744 193.67,247.742C193.67,247.193 194.121,246.742 194.67,246.742C194.713,246.742 194.757,246.744 194.8,246.75L195.61,246.75C195.703,246.74 195.797,246.734 195.891,246.734C197.279,246.734 198.421,247.876 198.421,249.264C198.421,249.343 198.417,249.422 198.41,249.5C198.414,249.561 198.416,249.623 198.416,249.684C198.416,251.143 197.216,252.344 195.756,252.344C195.708,252.344 195.659,252.343 195.61,252.34L194.8,252.34C194.757,252.346 194.713,252.348 194.67,252.348C194.121,252.348 193.67,251.897 193.67,251.348C193.67,251.346 193.67,251.343 193.67,251.34L193.67,247.75Z" style="fill:rgb(214,35,0);fill-rule:nonzero;"/></g><g transform="matrix(1,0,0,1,-170.81,-162.93)"><path d="M309,259.29C311.89,259.29 313.47,257.12 313.47,254.42L313.47,249.64C313.47,249.05 313.74,248.78 314.19,248.78C314.64,248.78 314.91,249.09 315,249.64C315.418,252.133 316.34,254.515 317.71,256.64C319.25,258.64 320.71,259.3 322.14,259.3C324.471,259.339 326.434,257.48 326.52,255.15C326.489,253.784 325.975,252.473 325.07,251.45C323.796,250.032 322.76,248.418 322,246.67C321.85,246.295 322.006,245.863 322.36,245.67C323.76,244.59 325.36,242.2 325.36,238.41C325.36,232.68 320.61,229.41 314.88,229.41L309.77,229.41C306.2,229.41 304.48,231.48 304.48,234.28L304.48,254.4C304.54,257.13 306.12,259.29 309,259.29ZM313,238C313,237.997 313,237.994 313,237.992C313,237.443 313.451,236.992 314,236.992C314.043,236.992 314.087,236.994 314.13,237L314.76,237C314.82,236.995 314.88,236.993 314.94,236.993C316.213,236.993 317.26,238.04 317.26,239.313C317.26,239.385 317.257,239.458 317.25,239.53C317.256,239.6 317.259,239.671 317.259,239.742C317.259,241.064 316.171,242.152 314.849,242.152C314.82,242.152 314.79,242.151 314.76,242.15L314.13,242.15C314.087,242.156 314.043,242.158 314,242.158C313.451,242.158 313,241.707 313,241.158C313,241.156 313,241.153 313,241.15L313,238Z" style="fill:rgb(214,35,0);fill-rule:nonzero;"/></g><g transform="matrix(1,0,0,1,-170.81,-162.93)"><path d="M234.72,261.91C229.66,261.91 226.9,265.7 226.9,270.44L226.9,297.15C226.9,301.89 229.66,305.68 234.72,305.68C239.78,305.68 242.54,301.89 242.54,297.15L242.54,270.44C242.54,265.7 239.79,261.91 234.72,261.91Z" style="fill:rgb(214,35,0);fill-rule:nonzero;"/></g><g transform="matrix(1,0,0,1,-170.81,-162.93)"><path d="M315.07,279.28L312.86,279.28C308.86,279.28 305.86,281.13 305.86,285.19C305.86,288.89 309.2,290.65 311.69,290.65C312.91,290.65 313.77,291.01 313.77,291.96C313.77,293.13 312.32,293.9 310.77,293.9C305.66,293.9 302.18,290.43 302.18,283.97C302.18,276.8 306.93,274.18 310.58,274.18C315.05,274.18 315.78,276.44 318.89,276.44C322.167,276.468 324.891,273.806 324.94,270.53C324.974,268.513 324.012,266.603 322.37,265.43C319.61,263.43 315.46,261.91 309.58,261.91C299.05,261.91 288.79,268.54 288.79,283.97C288.79,298.72 299.05,305.63 309.17,305.63C319.79,305.63 326.52,299.09 326.52,289.52C326.5,283.48 322.7,279.28 315.07,279.28Z" style="fill:rgb(214,35,0);fill-rule:nonzero;"/></g><g transform="matrix(1,0,0,1,-170.81,-162.93)"><path d="M298,259.07C300.53,259.07 302.52,257.58 302.52,254.87C302.52,252.16 300.52,250.72 298,250.72L293.93,250.72C293.887,250.726 293.843,250.728 293.8,250.728C293.251,250.728 292.8,250.277 292.8,249.728C292.8,249.726 292.8,249.723 292.8,249.72L292.8,248.86C292.8,248.857 292.8,248.854 292.8,248.852C292.8,248.303 293.251,247.852 293.8,247.852C293.843,247.852 293.887,247.854 293.93,247.86L297,247.86C299.17,247.86 300.89,246.55 300.89,244.25C300.89,244.228 300.891,244.206 300.891,244.185C300.891,242.232 299.284,240.625 297.331,240.625C297.22,240.625 297.11,240.63 297,240.64L293.88,240.64C293.837,240.646 293.793,240.648 293.75,240.648C293.201,240.648 292.75,240.197 292.75,239.648C292.75,239.646 292.75,239.643 292.75,239.64L292.75,238.92C292.75,238.917 292.75,238.914 292.75,238.912C292.75,238.363 293.201,237.912 293.75,237.912C293.793,237.912 293.837,237.914 293.88,237.92L298,237.92C300.53,237.92 302.52,236.43 302.52,233.72C302.52,231.01 300.52,229.57 298,229.57L289.46,229.57C285.89,229.57 284.17,231.64 284.17,234.44L284.17,254.34C284.17,257.14 285.89,259.21 289.46,259.21L298,259.21L298,259.07Z" style="fill:rgb(214,35,0);fill-rule:nonzero;"/></g><g transform="matrix(1,0,0,1,-170.81,-162.93)"><path d="M220.36,259.29C227.68,259.29 231.57,254.91 231.57,249.41L231.57,234.21C231.57,231.5 229.99,229.34 227.1,229.34C224.21,229.34 222.63,231.51 222.63,234.21L222.63,248.92C222.634,248.974 222.636,249.027 222.636,249.081C222.636,250.283 221.647,251.271 220.446,251.271C220.421,251.271 220.395,251.271 220.37,251.27C220.349,251.271 220.328,251.271 220.307,251.271C219.144,251.271 218.187,250.314 218.187,249.151C218.187,249.074 218.192,248.997 218.2,248.92L218.2,234.21C218.2,231.5 216.57,229.34 213.68,229.34C210.79,229.34 209.21,231.51 209.21,234.21L209.21,249.41C209.2,254.92 213,259.29 220.36,259.29Z" style="fill:rgb(214,35,0);fill-rule:nonzero;"/></g><g transform="matrix(1,0,0,1,-170.81,-162.93)"><path d="M252.08,259.29C254.411,259.329 256.374,257.47 256.46,255.14C256.429,253.774 255.915,252.463 255.01,251.44C253.766,250 252.732,248.39 251.94,246.66C251.79,246.285 251.946,245.853 252.3,245.66C253.7,244.58 255.3,242.19 255.3,238.4C255.3,232.67 250.55,229.4 244.82,229.4L239.71,229.4C236.14,229.4 234.42,231.47 234.42,234.27L234.42,254.39C234.42,257.1 236,259.26 238.89,259.26C241.78,259.26 243.36,257.09 243.36,254.39L243.36,249.61C243.36,249.02 243.63,248.75 244.08,248.75C244.53,248.75 244.8,249.06 244.89,249.61C245.308,252.103 246.231,254.485 247.6,256.61C249.19,258.66 250.63,259.29 252.08,259.29ZM244.67,242.05L244,242.05C243.957,242.056 243.913,242.058 243.87,242.058C243.321,242.058 242.87,241.607 242.87,241.058C242.87,241.056 242.87,241.053 242.87,241.05L242.87,238C242.87,237.997 242.87,237.994 242.87,237.992C242.87,237.443 243.321,236.992 243.87,236.992C243.913,236.992 243.957,236.994 244,237L244.63,237C244.69,236.995 244.75,236.993 244.81,236.993C246.083,236.993 247.13,238.04 247.13,239.313C247.13,239.385 247.127,239.458 247.12,239.53C247.122,239.57 247.123,239.61 247.123,239.65C247.123,240.972 246.035,242.06 244.713,242.06C244.699,242.06 244.684,242.06 244.67,242.06L244.67,242.05Z" style="fill:rgb(214,35,0);fill-rule:nonzero;"/></g><g transform="matrix(1,0,0,1,-170.81,-162.93)"><path d="M278.06,261.91C273.4,261.91 270.88,265.38 270.88,269.76L270.88,279.5C270.88,280.31 270.61,280.67 270.11,280.67C269.61,280.67 269.48,280.44 269.16,279.81L262.88,267.63C260.48,262.98 258,261.9 255.15,261.9C250.4,261.9 247.78,265.46 247.78,269.9L247.78,297.79C247.78,302.17 250.31,305.64 254.96,305.64C259.61,305.64 262.14,302.17 262.14,297.79L262.14,288.05C262.14,287.24 262.41,286.88 262.91,286.88C263.41,286.88 263.54,287.11 263.86,287.74L270.14,299.92C272.54,304.57 275.14,305.65 277.87,305.65C282.62,305.65 285.24,302.09 285.24,297.65L285.24,269.76C285.24,265.38 282.71,261.91 278.06,261.91Z" style="fill:rgb(214,35,0);fill-rule:nonzero;"/></g><g transform="matrix(1,0,0,1,-170.81,-162.93)"><path d="M320.14,331.66C320.14,330.437 321.147,329.43 322.37,329.43C323.593,329.43 324.6,330.437 324.6,331.66C324.6,332.883 323.593,333.89 322.37,333.89C321.147,333.89 320.14,332.883 320.14,331.66ZM324.14,331.66C324.118,330.715 323.335,329.95 322.39,329.95C321.43,329.95 320.64,330.74 320.64,331.7C320.64,332.66 321.43,333.45 322.39,333.45C323.336,333.445 324.111,332.666 324.111,331.72C324.111,331.7 324.111,331.68 324.11,331.66L324.14,331.66ZM321.62,332.66L321.62,330.77C321.625,330.644 321.724,330.54 321.85,330.53L322.49,330.53C322.52,330.526 322.551,330.524 322.581,330.524C322.981,330.524 323.317,330.841 323.34,331.24C323.357,331.617 323.066,331.943 322.69,331.97L323.19,332.53C323.234,332.569 323.263,332.622 323.27,332.68C323.27,332.683 323.27,332.687 323.27,332.69C323.27,332.811 323.171,332.91 323.05,332.91C323.047,332.91 323.043,332.91 323.04,332.91C322.959,332.911 322.882,332.869 322.84,332.8L322.17,332.01L322.09,332.01L322.09,332.66C322.067,332.771 321.968,332.851 321.855,332.851C321.742,332.851 321.643,332.771 321.62,332.66ZM322.43,331.58C322.7,331.58 322.85,331.44 322.85,331.26C322.85,331.08 322.71,330.96 322.47,330.96L322.09,330.96L322.09,331.58L322.43,331.58Z" style="fill:rgb(214,35,0);fill-rule:nonzero;"/></g></svg>